<svg
    xmlns="http://www.w3.org/2000/svg"
    xml:space="preserve"
    viewBox="0 -7.95 595.2 595.2"
>
    <style>
        @media (prefers-color-scheme: dark) {
            .a {
                fill: #f0f0f0;
            }
        }
    </style>
    <path
        class="a"
        fill="#2465e6"
        d="M293.6 578.4v-47.3l194.8-112.5c30.6-17.7 52.5-46.2 61.6-80.4 9.2-34.2 4.4-70-13.2-100.5s-46.2-52.5-80.4-61.6c-34.2-9.2-70-4.4-100.5 13.2L235 258.5v-47.3l100.3-57.4c40.1-23.1 86.8-29.3 131.6-17.2s82.3 40.7 105.4 80.8 29.3 86.8 17.2 131.6-40.7 82.3-80.8 105.4l-215.1 124zM173.8 444.3c-15.1 0-30.2-2-45.2-6-44.8-12-82.3-40.7-105.4-80.8-47.8-82.7-19.3-189 63.6-236.8L293.7.9v47.3L107.3 156.1c-63.2 36.5-85 117.7-48.4 181 17.7 30.6 46.2 52.5 80.4 61.6 34.2 9.2 70 4.4 100.5-13.2l112.6-66v47.3L260.3 421c-26.8 15.4-56.5 23.3-86.5 23.3zm119.8 45.8v-47.3l156.5-90.5c26.8-15.5 35.9-49.8 20.5-76.5-15.5-26.8-49.8-35.9-76.5-20.5l-172.3 99.5c-22.4 12.9-48.6 16.4-73.5 9.6-25.1-6.8-46-22.7-58.9-45.1s-16.4-48.6-9.6-73.5c6.8-25 22.7-46 45.1-58.9l168.7-97.6v47.3l-148.2 85.8c-12.9 7.5-22.1 19.6-26.1 34.1-3.9 14.5-1.8 29.5 5.5 42.4 7.5 12.9 19.6 22.1 34.1 26.1 14.5 3.9 29.5 1.8 42.4-5.5L373.6 220c46.4-26.7 105.7-10.8 132.4 35.5 26.7 46.4 10.8 105.7-35.5 132.4L293.6 490.1z"
    />
</svg>
